<svg xmlns="http://www.w3.org/2000/svg" xmlns:xlink="http://www.w3.org/1999/xlink" width="500" zoomAndPan="magnify" viewBox="0 0 375 374.999991" height="500" preserveAspectRatio="xMidYMid meet" version="1.0"><defs><clipPath id="id1"><path d="M 58.460938 23.214844 L 229 23.214844 L 229 277 L 58.460938 277 Z M 58.460938 23.214844 " clip-rule="nonzero"/></clipPath><clipPath id="id2"><path d="M 209 108 L 316.460938 108 L 316.460938 351.714844 L 209 351.714844 Z M 209 108 " clip-rule="nonzero"/></clipPath><clipPath id="id3"><path d="M 257 23.214844 L 311 23.214844 L 311 78 L 257 78 Z M 257 23.214844 " clip-rule="nonzero"/></clipPath></defs><g clip-path="url(#id1)"><path fill="#2ba977" d="M 174.519531 23.214844 L 228.304688 23.214844 L 228.304688 269.730469 C 200.757812 274.941406 180.476562 276.988281 158.535156 276.988281 C 92.847656 276.929688 58.652344 247.582031 58.652344 191.210938 C 58.652344 136.90625 94.921875 101.660156 151.128906 101.660156 C 159.851562 101.660156 166.496094 102.34375 174.519531 104.402344 Z M 176.40625 148.828125 C 170.109375 146.769531 164.917969 146.085938 158.273438 146.085938 C 131.070312 146.085938 115.359375 162.679688 115.359375 191.753906 C 115.359375 220.074219 130.378906 235.710938 157.929688 235.710938 C 163.878906 235.710938 168.726562 235.367188 176.40625 234.335938 Z M 176.40625 148.828125 " fill-opacity="1" fill-rule="nonzero"/></g><g clip-path="url(#id2)"><path fill="#2ba977" d="M 316.257812 108.277344 L 316.257812 231.703125 C 316.257812 274.214844 313.070312 294.65625 303.730469 312.273438 C 295.011719 329.222656 283.511719 339.902344 259.769531 351.707031 L 209.871094 328.183594 C 233.613281 317.148438 245.101562 307.398438 252.441406 292.515625 C 260.121094 277.304688 262.546875 259.6875 262.546875 213.328125 L 262.546875 108.277344 L 316.257812 108.28125 Z M 316.257812 108.277344 " fill-opacity="1" fill-rule="nonzero"/></g><g clip-path="url(#id3)"><path fill="#2ba977" d="M 257.125 23.214844 L 310.910156 23.214844 L 310.910156 77.867188 L 257.125 77.867188 Z M 257.125 23.214844 " fill-opacity="1" fill-rule="nonzero"/></g></svg>