<svg xmlns="http://www.w3.org/2000/svg" xmlns:xlink="http://www.w3.org/1999/xlink" width="500" zoomAndPan="magnify" viewBox="0 0 375 374.999991" height="500" preserveAspectRatio="xMidYMid meet" version="1.0"><rect x="-37.5" width="450" fill="#ffffff" y="-37.499999" height="449.999989" fill-opacity="1"/><rect x="-37.5" width="450" fill="#ffffff" y="-37.499999" height="449.999989" fill-opacity="1"/><rect x="-37.5" width="450" fill="#ffffff" y="-37.499999" height="449.999989" fill-opacity="1"/><path fill="#ffffff" d="M 189.308594 351.332031 L 180.746094 348.402344 C 180.746094 348.402344 181.792969 304.671875 166.125 301.53125 C 155.683594 289.394531 167.800781 -213.222656 205.390625 299.851562 C 205.390625 299.851562 192.445312 306.335938 190.140625 317.429688 C 187.648438 328.316406 189.308594 351.332031 189.308594 351.332031 Z M 189.308594 351.332031 " fill-opacity="1" fill-rule="nonzero"/><path fill="#a6a385" d="M 189.308594 351.332031 L 180.746094 348.402344 C 180.746094 348.402344 181.792969 304.671875 166.125 301.53125 C 155.683594 289.394531 167.800781 -213.222656 205.390625 299.851562 C 205.390625 299.851562 192.445312 306.335938 190.140625 317.429688 C 187.648438 328.316406 189.308594 351.332031 189.308594 351.332031 Z M 189.308594 351.332031 " fill-opacity="1" fill-rule="nonzero"/><path fill="#ffffff" d="M 193.90625 309.0625 C 193.90625 309.0625 268.890625 259.679688 251.347656 156.9375 C 234.433594 82.246094 194.535156 57.753906 190.152344 48.34375 C 185.355469 41.640625 180.757812 29.933594 180.757812 29.933594 L 183.894531 237.714844 C 183.882812 237.914062 177.410156 301.316406 193.90625 309.0625 Z M 193.90625 309.0625 " fill-opacity="1" fill-rule="nonzero"/><path fill="#499d4a" d="M 193.90625 309.0625 C 193.90625 309.0625 268.890625 259.679688 251.347656 156.9375 C 234.433594 82.246094 194.535156 57.753906 190.152344 48.34375 C 185.355469 41.640625 180.757812 29.933594 180.757812 29.933594 L 183.894531 237.714844 C 183.882812 237.914062 177.410156 301.316406 193.90625 309.0625 Z M 193.90625 309.0625 " fill-opacity="1" fill-rule="nonzero"/><path fill="#ffffff" d="M 176.363281 311.773438 C 176.363281 311.773438 105.976562 263.652344 110.160156 178.902344 C 114.125 94.15625 163.832031 52.519531 173.441406 44.984375 C 179.714844 38.300781 179.914062 35.789062 180.332031 29.089844 C 184.714844 38.5 183.882812 169.910156 184.511719 185.390625 C 186.386719 245.03125 181.175781 300.484375 176.363281 311.773438 Z M 176.363281 311.773438 " fill-opacity="1" fill-rule="nonzero"/><path fill="#58aa50" d="M 176.363281 311.773438 C 176.363281 311.773438 105.976562 263.652344 110.160156 178.902344 C 114.125 94.15625 163.832031 52.519531 173.441406 44.984375 C 179.714844 38.300781 179.914062 35.789062 180.332031 29.089844 C 184.714844 38.5 183.882812 169.910156 184.511719 185.390625 C 186.386719 245.03125 181.175781 300.484375 176.363281 311.773438 Z M 176.363281 311.773438 " fill-opacity="1" fill-rule="nonzero"/></svg>