<svg xmlns="http://www.w3.org/2000/svg" xmlns:xlink="http://www.w3.org/1999/xlink" width="500" zoomAndPan="magnify" viewBox="0 0 375 374.999991" height="500" preserveAspectRatio="xMidYMid meet" version="1.0"><defs><clipPath id="id1"><path d="M 16.296875 38.765625 L 62 38.765625 L 62 218 L 16.296875 218 Z M 16.296875 38.765625 " clip-rule="nonzero"/></clipPath><clipPath id="id2"><path d="M 224 38.765625 L 270 38.765625 L 270 218 L 224 218 Z M 224 38.765625 " clip-rule="nonzero"/></clipPath><clipPath id="id3"><path d="M 16.296875 38.765625 L 144 38.765625 L 144 173 L 16.296875 173 Z M 16.296875 38.765625 " clip-rule="nonzero"/></clipPath><clipPath id="id4"><path d="M 143 38.765625 L 270 38.765625 L 270 173 L 143 173 Z M 143 38.765625 " clip-rule="nonzero"/></clipPath><clipPath id="id5"><path d="M 232 202 L 359 202 L 359 336.515625 L 232 336.515625 Z M 232 202 " clip-rule="nonzero"/></clipPath></defs><g clip-path="url(#id1)"><path fill="#29b6f6" d="M 16.457031 38.765625 L 61.121094 68.542969 L 61.121094 217.417969 L 16.457031 187.640625 Z M 16.457031 38.765625 " fill-opacity="1" fill-rule="nonzero"/></g><path fill="#0288d1" d="M 358.886719 150.421875 L 314.222656 180.199219 L 314.222656 276.96875 L 358.886719 247.191406 Z M 358.886719 150.421875 " fill-opacity="1" fill-rule="nonzero"/><path fill="#0288d1" d="M 358.886719 46.210938 L 314.222656 75.984375 L 314.222656 128.09375 L 358.886719 98.316406 Z M 358.886719 46.210938 " fill-opacity="1" fill-rule="nonzero"/><g clip-path="url(#id2)"><path fill="#0288d1" d="M 269.558594 38.765625 L 224.890625 68.542969 L 224.890625 217.417969 L 269.558594 187.640625 Z M 269.558594 38.765625 " fill-opacity="1" fill-rule="nonzero"/></g><g clip-path="url(#id3)"><path fill="#29b6f6" d="M 16.457031 90.875 L 143.007812 172.753906 L 143.007812 120.648438 L 16.457031 38.765625 Z M 16.457031 90.875 " fill-opacity="1" fill-rule="nonzero"/></g><g clip-path="url(#id4)"><path fill="#0288d1" d="M 269.558594 90.875 L 143.007812 172.753906 L 143.007812 120.648438 L 269.558594 38.765625 Z M 269.558594 90.875 " fill-opacity="1" fill-rule="nonzero"/></g><path fill="#0288d1" d="M 269.558594 195.085938 L 143.007812 276.96875 L 143.007812 224.859375 L 269.558594 142.980469 Z M 269.558594 195.085938 " fill-opacity="1" fill-rule="nonzero"/><g clip-path="url(#id5)"><path fill="#0288d1" d="M 358.886719 254.636719 L 232.335938 336.515625 L 232.335938 284.410156 L 358.886719 202.53125 Z M 358.886719 254.636719 " fill-opacity="1" fill-rule="nonzero"/></g><path fill="#29b6f6" d="M 232.335938 282.660156 L 143.007812 224.859375 L 143.007812 276.96875 L 232.335938 334.769531 Z M 232.335938 282.660156 " fill-opacity="1" fill-rule="nonzero"/></svg>