<svg xmlns="http://www.w3.org/2000/svg" xmlns:xlink="http://www.w3.org/1999/xlink" width="500" zoomAndPan="magnify" viewBox="0 0 375 374.999991" height="500" preserveAspectRatio="xMidYMid meet" version="1.0"><path fill="#ffffff" d="M 258.476562 30.597656 C 252.671875 30.402344 246.597656 31.417969 240.507812 33.390625 C 228.328125 37.34375 215.566406 45.042969 202.46875 55.703125 C 197.335938 59.882812 192.15625 64.65625 186.957031 69.722656 C 181.875 64.785156 176.804688 60.136719 171.785156 56.050781 C 158.695312 45.398438 145.96875 37.699219 133.816406 33.753906 C 121.664062 29.8125 109.574219 29.691406 99.640625 35.429688 C 89.710938 41.164062 83.773438 51.695312 81.109375 64.199219 C 78.445312 76.699219 78.738281 91.585938 81.414062 108.253906 C 82.34375 114.042969 83.667969 120.117188 85.179688 126.300781 C 79.503906 128.023438 73.992188 129.832031 68.882812 131.828125 C 53.460938 137.855469 40.703125 145.066406 31.410156 153.644531 C 22.117188 162.226562 16.117188 172.640625 16.117188 184.074219 C 16.117188 195.507812 22.117188 205.90625 31.410156 214.484375 C 40.703125 223.066406 53.460938 230.289062 68.882812 236.316406 C 74.347656 238.453125 80.261719 240.375 86.371094 242.195312 C 84.175781 250.40625 82.394531 258.375 81.179688 265.929688 C 78.503906 282.609375 78.21875 297.5 80.890625 310.03125 C 83.5625 322.558594 89.503906 333.148438 99.480469 338.914062 C 109.460938 344.679688 121.605469 344.539062 133.785156 340.585938 C 145.964844 336.636719 158.714844 328.953125 171.8125 318.289062 C 176.898438 314.152344 182.042969 309.429688 187.191406 304.414062 C 192.367188 309.460938 197.53125 314.203125 202.644531 318.363281 C 215.730469 329.015625 228.472656 336.703125 240.625 340.644531 C 252.777344 344.585938 264.867188 344.710938 274.796875 338.972656 C 284.730469 333.234375 290.652344 322.707031 293.316406 310.203125 C 295.980469 297.703125 295.6875 282.828125 293.011719 266.164062 C 291.796875 258.589844 290.015625 250.59375 287.808594 242.355469 C 294.117188 240.492188 300.21875 238.515625 305.847656 236.316406 C 321.269531 230.289062 334.027344 223.066406 343.320312 214.484375 C 352.613281 205.90625 358.613281 195.507812 358.613281 184.074219 C 358.613281 172.640625 352.613281 162.226562 343.320312 153.644531 C 334.027344 145.066406 321.269531 137.855469 305.847656 131.828125 C 300.664062 129.804688 295.070312 127.972656 289.304688 126.230469 C 290.828125 120.003906 292.179688 113.886719 293.113281 108.0625 C 295.792969 91.382812 296.074219 76.480469 293.40625 63.949219 C 290.734375 51.421875 284.777344 40.84375 274.796875 35.078125 C 269.808594 32.195312 264.277344 30.792969 258.476562 30.597656 Z M 257.792969 45.753906 C 261.433594 45.855469 264.539062 46.722656 267.195312 48.257812 C 272.511719 51.328125 276.4375 57.300781 278.535156 67.136719 C 280.628906 76.96875 280.558594 90.253906 278.082031 105.664062 C 277.238281 110.9375 276.007812 116.53125 274.609375 122.257812 C 259.386719 118.59375 242.707031 115.875 224.925781 114.273438 C 216 101.902344 206.832031 90.632812 197.585938 80.632812 C 202.476562 75.855469 207.332031 71.386719 212.078125 67.527344 C 224.175781 57.679688 235.628906 50.980469 245.1875 47.878906 C 249.96875 46.328125 254.152344 45.65625 257.792969 45.753906 Z M 116.5625 45.796875 C 120.222656 45.695312 124.414062 46.367188 129.207031 47.921875 C 138.792969 51.03125 150.269531 57.730469 162.378906 67.585938 C 167.027344 71.367188 171.777344 75.75 176.566406 80.414062 C 167.25 90.496094 158.003906 101.863281 149.019531 114.347656 C 131.316406 115.976562 114.703125 118.710938 99.554688 122.390625 C 98.167969 116.691406 96.9375 111.128906 96.09375 105.882812 C 93.617188 90.460938 93.558594 77.171875 95.660156 67.308594 C 97.761719 57.449219 101.722656 51.425781 107.085938 48.328125 C 109.765625 46.78125 112.898438 45.902344 116.5625 45.796875 Z M 187.191406 91.351562 C 193.253906 97.953125 199.316406 105.175781 205.332031 112.949219 C 199.421875 112.703125 193.441406 112.558594 187.367188 112.558594 C 181.167969 112.558594 175.074219 112.707031 169.050781 112.964844 C 175.066406 105.1875 181.128906 97.957031 187.191406 91.351562 Z M 187.367188 127.597656 C 197.488281 127.597656 207.351562 128.011719 216.945312 128.71875 C 223.546875 138.207031 230 148.273438 236.148438 158.925781 C 241.550781 168.289062 246.4375 177.636719 250.886719 186.867188 C 246.390625 196.21875 241.421875 205.691406 235.945312 215.183594 C 231.125 223.539062 226.089844 231.472656 220.972656 239.125 C 210.132812 240.03125 198.902344 240.535156 187.367188 240.535156 C 175.550781 240.535156 164.066406 240 152.988281 239.050781 C 147.957031 231.511719 143.007812 223.695312 138.261719 215.476562 C 132.800781 206.007812 127.851562 196.550781 123.363281 187.214844 C 127.871094 177.828125 132.839844 168.320312 138.335938 158.796875 C 144.453125 148.195312 150.886719 138.1875 157.449219 128.746094 C 167.148438 128.027344 177.128906 127.597656 187.367188 127.597656 Z M 236.105469 130.578125 C 248.371094 132.109375 259.890625 134.238281 270.613281 136.789062 C 267.429688 147.222656 263.511719 158.121094 258.765625 169.367188 C 255.683594 163.421875 252.492188 157.457031 249.042969 151.480469 C 244.859375 144.234375 240.507812 137.328125 236.105469 130.578125 Z M 137.828125 130.695312 C 133.519531 137.316406 129.277344 144.089844 125.179688 151.1875 C 121.6875 157.242188 118.429688 163.289062 115.3125 169.3125 C 110.605469 158.132812 106.710938 147.292969 103.550781 136.921875 C 114.191406 134.363281 125.644531 132.246094 137.828125 130.695312 Z M 285.335938 140.746094 C 290.613281 142.34375 295.707031 144.007812 300.382812 145.835938 C 314.597656 151.390625 325.84375 157.96875 333.132812 164.699219 C 340.417969 171.429688 343.582031 177.847656 343.582031 184.074219 C 343.582031 190.300781 340.417969 196.71875 333.132812 203.445312 C 325.84375 210.175781 314.597656 216.753906 300.382812 222.3125 C 295.1875 224.339844 289.480469 226.179688 283.550781 227.925781 C 279.316406 214.828125 273.914062 201.164062 267.488281 187.214844 C 274.878906 171.199219 280.851562 155.585938 285.335938 140.746094 Z M 89.148438 140.816406 C 93.582031 155.511719 99.476562 170.96875 106.765625 186.824219 C 100.292969 200.851562 94.867188 214.59375 90.613281 227.765625 C 84.890625 226.066406 79.378906 224.277344 74.347656 222.3125 C 60.132812 216.753906 48.886719 210.175781 41.601562 203.445312 C 34.3125 196.71875 31.148438 190.300781 31.148438 184.074219 C 31.148438 177.847656 34.3125 171.429688 41.601562 164.699219 C 48.886719 157.96875 60.132812 151.390625 74.347656 145.835938 C 78.953125 144.039062 83.960938 142.394531 89.148438 140.816406 Z M 187.367188 149.863281 C 166.902344 149.863281 150.152344 166.625 150.152344 187.097656 C 150.152344 207.574219 166.902344 224.332031 187.367188 224.332031 C 207.828125 224.332031 224.578125 207.574219 224.578125 187.097656 C 224.578125 166.625 207.828125 149.863281 187.367188 149.863281 Z M 115.484375 204.710938 C 118.617188 210.765625 121.875 216.835938 125.386719 222.921875 C 128.132812 227.683594 130.9375 232.320312 133.785156 236.871094 C 123.792969 235.484375 114.289062 233.726562 105.367188 231.648438 C 108.207031 222.953125 111.601562 213.929688 115.484375 204.710938 Z M 258.953125 204.710938 C 262.855469 213.949219 266.25 222.988281 269.101562 231.707031 C 260.152344 233.785156 250.621094 235.535156 240.597656 236.914062 C 243.480469 232.308594 246.332031 227.613281 249.113281 222.792969 C 252.601562 216.75 255.84375 210.71875 258.953125 204.710938 Z M 101.082031 246.105469 C 114.550781 249.296875 129.148438 251.75 144.628906 253.347656 C 154.964844 268.304688 165.730469 281.742188 176.566406 293.492188 C 171.71875 298.21875 166.917969 302.65625 162.21875 306.480469 C 150.121094 316.328125 138.652344 323.015625 129.089844 326.117188 C 119.53125 329.214844 112.398438 328.808594 107.085938 325.738281 C 101.769531 322.667969 97.855469 316.691406 95.761719 306.859375 C 93.664062 297.023438 93.722656 283.753906 96.195312 268.34375 C 97.320312 261.355469 98.996094 253.871094 101.082031 246.105469 Z M 273.402344 246.164062 C 275.503906 253.976562 277.1875 261.488281 278.316406 268.519531 C 280.792969 283.941406 280.855469 297.230469 278.753906 307.089844 C 276.652344 316.953125 272.71875 322.988281 267.355469 326.085938 C 261.992188 329.183594 254.789062 329.589844 245.203125 326.480469 C 235.617188 323.371094 224.144531 316.671875 212.03125 306.816406 C 207.300781 302.960938 202.464844 298.488281 197.585938 293.726562 C 208.492188 281.929688 219.335938 268.421875 229.738281 253.378906 C 245.257812 251.792969 259.898438 249.351562 273.402344 246.164062 Z M 164.050781 254.875 C 171.691406 255.292969 179.433594 255.574219 187.367188 255.574219 C 195.035156 255.574219 202.527344 255.308594 209.925781 254.921875 C 202.363281 265.132812 194.652344 274.414062 186.972656 282.773438 C 179.300781 274.394531 171.605469 265.097656 164.050781 254.875 Z M 164.050781 254.875 " fill-opacity="1" fill-rule="evenodd"/></svg>