<svg xmlns="http://www.w3.org/2000/svg" xmlns:xlink="http://www.w3.org/1999/xlink" width="500" zoomAndPan="magnify" viewBox="0 0 375 374.999991" height="500" preserveAspectRatio="xMidYMid meet" version="1.0"><defs><clipPath id="id1"><path d="M 46.558594 29 L 328.558594 29 L 328.558594 346.652344 L 46.558594 346.652344 Z M 46.558594 29 " clip-rule="nonzero"/></clipPath></defs><rect x="-37.5" width="450" fill="#ffffff" y="-37.499999" height="449.999989" fill-opacity="1"/><rect x="-37.5" width="450" fill="#ffffff" y="-37.499999" height="449.999989" fill-opacity="1"/><rect x="-37.5" width="450" fill="#ffffff" y="-37.499999" height="449.999989" fill-opacity="1"/><g clip-path="url(#id1)"><path fill="#539e43" d="M 187.558594 346.609375 C 183.1875 346.609375 179.113281 345.445312 175.335938 343.414062 L 136.628906 320.402344 C 130.808594 317.207031 133.71875 316.039062 135.464844 315.457031 C 143.320312 312.832031 144.777344 312.25 152.925781 307.589844 C 153.800781 307.007812 154.964844 307.304688 155.835938 307.886719 L 185.515625 325.644531 C 186.679688 326.226562 188.140625 326.226562 189.019531 325.644531 L 305.136719 258.386719 C 306.300781 257.804688 306.882812 256.636719 306.882812 255.175781 L 306.882812 120.933594 C 306.882812 119.476562 306.300781 118.3125 305.136719 117.730469 L 189.019531 50.753906 C 187.855469 50.171875 186.394531 50.171875 185.515625 50.753906 L 69.402344 117.730469 C 68.234375 118.3125 67.652344 119.769531 67.652344 120.933594 L 67.652344 255.179688 C 67.652344 256.34375 68.234375 257.804688 69.398438 258.386719 L 101.121094 276.726562 C 118.292969 285.460938 129.058594 275.273438 129.058594 265.078125 L 129.058594 132.582031 C 129.058594 130.835938 130.515625 129.089844 132.554688 129.089844 L 147.398438 129.089844 C 149.144531 129.089844 150.890625 130.542969 150.890625 132.582031 L 150.890625 265.078125 C 150.890625 288.089844 138.375 301.484375 116.546875 301.484375 C 109.851562 301.484375 104.613281 301.484375 89.769531 294.199219 L 59.210938 276.726562 C 51.644531 272.363281 46.984375 264.210938 46.984375 255.476562 L 46.984375 121.230469 C 46.984375 112.492188 51.644531 104.335938 59.210938 99.96875 L 175.335938 32.703125 C 182.605469 28.625 192.511719 28.625 199.785156 32.703125 L 315.910156 99.96875 C 323.476562 104.335938 328.132812 112.492188 328.132812 121.226562 L 328.132812 255.46875 C 328.132812 264.207031 323.476562 272.359375 315.910156 276.722656 L 199.785156 343.992188 C 196.003906 345.738281 191.632812 346.605469 187.558594 346.605469 Z M 223.363281 254.308594 C 172.425781 254.308594 161.949219 231.003906 161.949219 211.203125 C 161.949219 209.453125 163.398438 207.707031 165.441406 207.707031 L 180.574219 207.707031 C 182.320312 207.707031 183.769531 208.871094 183.769531 210.621094 C 186.097656 226.058594 192.796875 233.628906 223.648438 233.628906 C 248.09375 233.628906 258.570312 228.089844 258.570312 214.992188 C 258.570312 207.421875 255.660156 201.882812 217.542969 198.105469 C 185.8125 194.894531 166.023438 187.90625 166.023438 162.578125 C 166.023438 138.988281 185.8125 125.011719 218.992188 125.011719 C 256.242188 125.011719 274.585938 137.824219 276.914062 165.777344 C 276.914062 166.65625 276.617188 167.523438 276.035156 168.402344 C 275.453125 168.984375 274.585938 169.566406 273.707031 169.566406 L 258.570312 169.566406 C 257.121094 169.566406 255.660156 168.402344 255.375 166.941406 C 251.882812 150.929688 242.855469 145.691406 218.992188 145.691406 C 192.214844 145.691406 189.019531 155.007812 189.019531 161.996094 C 189.019531 170.433594 192.796875 173.0625 228.886719 177.71875 C 264.6875 182.378906 281.570312 189.070312 281.570312 214.113281 C 281.273438 239.738281 260.316406 254.308594 223.363281 254.308594 Z M 223.363281 254.308594 " fill-opacity="1" fill-rule="nonzero"/></g></svg>