<svg xmlns="http://www.w3.org/2000/svg" xmlns:xlink="http://www.w3.org/1999/xlink" width="500" zoomAndPan="magnify" viewBox="0 0 375 374.999991" height="500" preserveAspectRatio="xMidYMid meet" version="1.0"><defs><clipPath id="id1"><path d="M 37 18 L 337.695312 18 L 337.695312 356.816406 L 37 356.816406 Z M 37 18 " clip-rule="nonzero"/></clipPath></defs><g clip-path="url(#id1)"><path fill="#539e43" d="M 187.320312 356.769531 C 182.660156 356.769531 178.3125 355.53125 174.285156 353.363281 L 133 328.832031 C 126.792969 325.425781 129.898438 324.183594 131.757812 323.5625 C 140.140625 320.761719 141.691406 320.140625 150.382812 315.175781 C 151.316406 314.554688 152.554688 314.871094 153.488281 315.492188 L 185.140625 334.421875 C 186.382812 335.042969 187.941406 335.042969 188.878906 334.421875 L 312.71875 262.71875 C 313.960938 262.097656 314.578125 260.859375 314.578125 259.300781 L 314.578125 116.191406 C 314.578125 114.640625 313.960938 113.398438 312.71875 112.777344 L 188.878906 41.378906 C 187.636719 40.757812 186.078125 40.757812 185.140625 41.378906 L 61.304688 112.777344 C 60.058594 113.398438 59.4375 114.949219 59.4375 116.191406 L 59.4375 259.300781 C 59.4375 260.542969 60.058594 262.101562 61.296875 262.722656 L 95.132812 282.273438 C 113.445312 291.585938 124.929688 280.726562 124.929688 269.855469 L 124.929688 128.609375 C 124.929688 126.746094 126.480469 124.886719 128.65625 124.886719 L 144.484375 124.886719 C 146.347656 124.886719 148.210938 126.4375 148.210938 128.609375 L 148.210938 269.855469 C 148.210938 294.386719 134.863281 308.664062 111.582031 308.664062 C 104.445312 308.664062 98.855469 308.664062 83.027344 300.898438 L 50.433594 282.273438 C 42.363281 277.621094 37.398438 268.929688 37.398438 259.617188 L 37.398438 116.511719 C 37.398438 107.191406 42.363281 98.5 50.433594 93.84375 L 174.285156 22.132812 C 182.039062 17.789062 192.601562 17.789062 200.355469 22.132812 L 324.207031 93.84375 C 332.277344 98.5 337.242188 107.191406 337.242188 116.503906 L 337.242188 259.613281 C 337.242188 268.925781 332.277344 277.617188 324.207031 282.269531 L 200.355469 353.980469 C 196.328125 355.84375 191.667969 356.769531 187.320312 356.769531 Z M 225.503906 258.375 C 171.179688 258.375 160.007812 233.527344 160.007812 212.421875 C 160.007812 210.558594 161.550781 208.695312 163.730469 208.695312 L 179.871094 208.695312 C 181.734375 208.695312 183.28125 209.9375 183.28125 211.800781 C 185.761719 228.257812 192.90625 236.328125 225.808594 236.328125 C 251.882812 236.328125 263.054688 230.425781 263.054688 216.460938 C 263.054688 208.390625 259.953125 202.488281 219.296875 198.457031 C 185.457031 195.039062 164.351562 187.585938 164.351562 160.585938 C 164.351562 135.4375 185.457031 120.539062 220.84375 120.539062 C 260.574219 120.539062 280.132812 134.195312 282.617188 163.996094 C 282.617188 164.933594 282.300781 165.859375 281.679688 166.796875 C 281.058594 167.417969 280.132812 168.035156 279.195312 168.035156 L 263.054688 168.035156 C 261.507812 168.035156 259.953125 166.796875 259.648438 165.238281 C 255.921875 148.171875 246.292969 142.582031 220.84375 142.582031 C 192.285156 142.582031 188.878906 152.515625 188.878906 159.964844 C 188.878906 168.960938 192.90625 171.761719 231.394531 176.730469 C 269.578125 181.695312 287.582031 188.828125 287.582031 215.523438 C 287.265625 242.839844 264.917969 258.375 225.503906 258.375 Z M 225.503906 258.375 " fill-opacity="1" fill-rule="nonzero"/></g></svg>