<svg xmlns="http://www.w3.org/2000/svg" xmlns:xlink="http://www.w3.org/1999/xlink" width="500" zoomAndPan="magnify" viewBox="0 0 375 374.999991" height="500" preserveAspectRatio="xMidYMid meet" version="1.0"><defs><clipPath id="id1"><path d="M 20 18.75 L 345 18.75 L 345 356.25 L 20 356.25 Z M 20 18.75 " clip-rule="nonzero"/></clipPath></defs><g clip-path="url(#id1)"><path fill="#ffffff" d="M 343.847656 224.242188 C 342.441406 217.882812 336.675781 210.464844 325.039062 210.464844 C 322.660156 210.464844 320.0625 210.765625 317.101562 211.378906 C 311.667969 212.496094 307.042969 213.042969 302.972656 213.226562 C 334.671875 159.226562 355.253906 84.21875 334.871094 58.175781 C 308.019531 23.867188 271.867188 18.742188 252.714844 18.742188 L 250.910156 18.75 C 243.785156 18.863281 236.390625 19.738281 228.949219 21.351562 L 201.46875 27.289062 C 197.726562 26.820312 193.914062 26.488281 189.9375 26.421875 L 189.585938 26.421875 L 188.421875 26.414062 C 176.203125 26.414062 165.054688 29.003906 155.121094 33.875 L 145.527344 30.09375 C 132.335938 24.894531 112.484375 18.703125 92.847656 18.703125 C 91.742188 18.703125 90.644531 18.726562 89.539062 18.765625 C 70.195312 19.464844 53.582031 26.804688 41.484375 39.988281 C 26.390625 56.449219 19.515625 80.527344 21.074219 111.5625 C 21.152344 113.164062 39.929688 271.875 93.152344 271.875 L 93.34375 271.875 L 93.835938 271.867188 C 100.746094 271.699219 107.335938 268.921875 113.496094 263.605469 C 118.199219 267.132812 124.28125 269.222656 129.949219 270.050781 C 133.691406 270.929688 140.425781 272.183594 148.496094 272.183594 C 158.34375 272.183594 167.226562 270.164062 174.882812 266.519531 C 174.875 273.269531 174.835938 281.816406 174.757812 292.738281 L 174.75 293.3125 L 174.789062 293.890625 C 175.535156 304.773438 177.414062 314.585938 180.242188 322.277344 C 188.304688 344.207031 202.226562 356.289062 219.449219 356.289062 C 220.160156 356.289062 220.890625 356.265625 221.625 356.21875 C 235.785156 355.34375 250.136719 347.390625 260.007812 334.957031 C 270.695312 321.496094 273.164062 307.289062 274.113281 296.40625 L 274.175781 295.738281 L 274.175781 263.773438 L 274.964844 263.851562 L 278.308594 264.144531 L 278.632812 264.175781 L 278.953125 264.1875 C 279.90625 264.234375 280.886719 264.25 281.878906 264.25 C 293.4375 264.25 307.664062 261.25 317.285156 256.78125 C 326.480469 252.515625 347.496094 240.792969 343.847656 224.242188 Z M 343.847656 224.242188 " fill-opacity="1" fill-rule="nonzero"/></g><path fill="#0277bd" d="M 258.835938 256.535156 C 258.835938 254.960938 258.925781 253.648438 258.972656 252.199219 C 258.898438 250.273438 258.835938 248.863281 258.835938 248.863281 C 258.835938 248.863281 258.925781 248.792969 259.082031 248.695312 C 260.222656 228.191406 265.875 220.292969 271.929688 215.789062 C 271.085938 214.613281 270.109375 213.347656 269.199219 212.144531 C 266.644531 208.792969 263.460938 204.636719 260.054688 199.304688 L 259.425781 198.09375 C 258.910156 196.835938 257.667969 194.664062 256.089844 191.8125 C 247.015625 175.394531 228.128906 141.246094 241.054688 119.679688 C 246.714844 110.226562 257.332031 104.78125 272.664062 103.441406 C 266.398438 85.621094 242.917969 42.644531 189.6875 41.761719 C 189.671875 41.761719 189.65625 41.761719 189.640625 41.761719 C 143.304688 41.007812 128.078125 83.121094 123.121094 108.28125 C 129.949219 105.386719 137.742188 103.632812 144.875 103.632812 C 144.984375 103.632812 145.097656 103.632812 145.207031 103.632812 C 162.769531 103.761719 174.851562 113.136719 178.363281 129.359375 C 180.933594 141.261719 182.167969 151.679688 182.136719 161.214844 C 182.0625 182.070312 177.859375 193.039062 174.144531 202.71875 L 172.964844 205.847656 C 172.011719 208.410156 171.007812 210.796875 170.058594 213.035156 C 169.089844 215.320312 168.238281 217.351562 167.617188 219.1875 C 171.332031 220.03125 174.246094 221.21875 176.246094 222.101562 L 177.40625 222.609375 C 177.765625 222.761719 178.125 222.9375 178.457031 223.136719 C 184.960938 227.09375 189.011719 233.175781 189.878906 240.265625 C 190.347656 244.085938 190.269531 270.125 190.109375 292.847656 C 190.773438 302.703125 192.449219 310.980469 194.65625 316.976562 C 197.792969 325.523438 205.632812 341.835938 220.691406 340.902344 C 231.199219 340.25 241.300781 333.851562 248.003906 325.414062 C 255.199219 316.355469 257.851562 306.339844 258.851562 295.054688 L 258.851562 256.535156 Z M 258.835938 256.535156 " fill-opacity="1" fill-rule="nonzero"/><path fill="#0277bd" d="M 121.640625 217.546875 C 109.269531 204.636719 103.238281 187.269531 105.503906 171.09375 C 107.6875 155.484375 106.453125 140.203125 105.785156 131.988281 C 105.5625 129.25 105.417969 127.210938 105.425781 126.082031 C 105.425781 126.019531 105.441406 125.96875 105.449219 125.90625 C 105.449219 125.875 105.433594 125.851562 105.433594 125.820312 C 106.363281 102.648438 115.296875 66.09375 139.898438 44.363281 C 127.914062 39.644531 108.402344 33.421875 90.085938 34.089844 C 61.382812 35.132812 33.601562 54.984375 36.390625 110.796875 C 37.441406 131.734375 61.105469 257.324219 93.460938 256.535156 C 98.085938 256.417969 102.886719 253.449219 107.820312 247.511719 C 115.621094 238.132812 123.199219 229.625 128.589844 223.703125 C 126.175781 221.871094 123.84375 219.847656 121.640625 217.546875 Z M 289.695312 108.730469 C 289.808594 109.914062 289.707031 110.925781 289.523438 111.863281 C 289.761719 118.917969 289.003906 125.769531 288.226562 132.394531 C 287.660156 137.273438 287.078125 142.3125 286.917969 147.367188 C 286.753906 152.316406 287.453125 157.203125 288.191406 162.371094 C 289.914062 174.476562 291.710938 188.136719 282.320312 204.074219 C 284.046875 206.347656 285.566406 208.457031 286.777344 210.496094 C 322.140625 153.160156 336.390625 85 322.792969 67.625 C 302.210938 41.332031 273.722656 33.722656 251.15625 34.089844 C 244.09375 34.207031 237.671875 35.15625 232.1875 36.347656 C 271.125 55.214844 288.464844 95.652344 289.695312 108.730469 Z M 320.199219 226.398438 C 299.757812 230.617188 289.921875 228.367188 285.152344 225.429688 C 284.386719 225.984375 283.617188 226.449219 282.90625 226.886719 C 280.050781 228.613281 275.535156 231.359375 274.429688 248.226562 C 275.066406 248.351562 275.625 248.417969 276.316406 248.566406 L 279.652344 248.863281 C 289.777344 249.324219 303.039062 246.484375 310.816406 242.871094 C 327.578125 235.09375 336.714844 222.992188 320.199219 226.398438 Z M 174.636719 242.105469 C 174.351562 239.820312 173.117188 237.972656 170.863281 236.492188 L 170.035156 236.128906 C 167.265625 234.910156 164.128906 233.523438 159.121094 233.523438 L 159.089844 233.523438 C 158.113281 233.597656 157.148438 233.667969 156.175781 233.667969 C 155.773438 233.667969 155.382812 233.613281 154.984375 233.597656 C 151.347656 236.398438 146.179688 238.5625 133.386719 241.191406 C 110.527344 247.015625 124.019531 253.886719 132.785156 254.953125 C 141.269531 257.078125 161.4375 259.664062 174.828125 248.75 C 174.789062 245.3125 174.730469 242.949219 174.636719 242.105469 Z M 174.636719 242.105469 " fill-opacity="1" fill-rule="nonzero"/><path fill="#0277bd" d="M 164.34375 137.648438 C 162.101562 139.964844 158.566406 141.992188 154.664062 141.363281 C 148.3125 140.335938 143.441406 132.671875 143.792969 129.796875 C 144.132812 126.925781 149.554688 125.429688 155.898438 126.457031 C 158.097656 126.820312 160.101562 127.441406 161.789062 128.207031 C 159.335938 122.929688 154.894531 119.886719 148.121094 119.140625 C 136.117188 117.804688 123.375 124.082031 120.8125 127.554688 C 120.867188 128.398438 120.964844 129.480469 121.066406 130.753906 C 121.78125 139.550781 123.097656 155.945312 120.683594 173.226562 C 119.085938 184.617188 123.695312 197.53125 132.703125 206.9375 C 138.507812 212.996094 145.289062 216.832031 151.976562 217.96875 C 152.828125 214.300781 154.347656 210.726562 155.914062 207.035156 C 156.78125 205.003906 157.699219 202.839844 158.566406 200.5 L 159.808594 197.226562 C 163.207031 188.367188 166.714844 179.199219 166.78125 161.152344 C 166.8125 154.210938 165.960938 146.285156 164.34375 137.648438 Z M 273.003906 164.542969 C 272.203125 158.949219 271.382812 153.160156 271.582031 146.878906 C 271.761719 141.1875 272.390625 135.816406 272.996094 130.625 C 273.46875 126.535156 273.839844 122.609375 274.054688 118.734375 C 264.167969 119.554688 257.601562 122.410156 254.484375 127.234375 C 255.773438 126.796875 257.230469 126.449219 258.84375 126.242188 C 265.683594 125.355469 270.679688 127.324219 271.253906 131.128906 C 271.675781 133.914062 269.3125 136.539062 268.277344 137.542969 C 266.152344 139.605469 263.476562 140.933594 260.753906 141.285156 C 260.261719 141.347656 259.761719 141.378906 259.28125 141.378906 C 256.574219 141.378906 253.988281 140.449219 252 139.078125 C 252.859375 154.210938 264.019531 174.453125 269.511719 184.386719 C 270.6875 186.511719 271.589844 188.207031 272.34375 189.664062 C 275.355469 181.078125 274.246094 173.257812 273.003906 164.542969 Z M 273.003906 164.542969 " fill-opacity="1" fill-rule="nonzero"/></svg>