<svg xmlns="http://www.w3.org/2000/svg" xmlns:xlink="http://www.w3.org/1999/xlink" width="500" zoomAndPan="magnify" viewBox="0 0 375 374.999991" height="500" preserveAspectRatio="xMidYMid meet" version="1.0"><defs><clipPath id="id1"><path d="M 12 12.238281 L 262 12.238281 L 262 280 L 12 280 Z M 12 12.238281 " clip-rule="nonzero"/></clipPath><clipPath id="id2"><path d="M 113 95 L 363 95 L 363 362.488281 L 113 362.488281 Z M 113 95 " clip-rule="nonzero"/></clipPath></defs><g clip-path="url(#id1)"><path fill="#0277bd" d="M 192.097656 12.238281 C 177.753906 12.285156 167.808594 13.546875 155.789062 15.621094 C 120.292969 21.796875 113.824219 34.765625 113.824219 58.664062 L 113.824219 95.191406 L 196.851562 95.191406 L 196.851562 113.628906 L 70.539062 113.628906 C 46.222656 113.628906 24.941406 125.074219 18.195312 152.515625 C 10.578125 184.007812 10.234375 203.734375 18.195312 236.621094 C 24.238281 261.148438 37.550781 279.535156 61.878906 279.535156 L 95.382812 279.535156 L 95.382812 232.492188 C 95.382812 205.152344 120.160156 178.148438 148.558594 178.148438 L 215.308594 178.148438 C 238.585938 178.148438 261.433594 160.984375 261.433594 137.804688 L 261.433594 58.664062 C 261.433594 36.183594 245.207031 19.375 222.523438 15.601562 C 223.085938 15.546875 206.324219 12.183594 192.097656 12.238281 Z M 146.121094 49.109375 C 153.695312 49.109375 159.960938 55.347656 159.960938 62.953125 C 159.960938 70.628906 153.695312 76.757812 146.121094 76.757812 C 138.398438 76.757812 132.285156 70.636719 132.285156 62.953125 C 132.285156 55.375 138.398438 49.109375 146.121094 49.109375 Z M 146.121094 49.109375 " fill-opacity="1" fill-rule="nonzero"/></g><g clip-path="url(#id2)"><path fill="#ffc107" d="M 183.160156 362.488281 C 197.503906 362.441406 207.449219 361.179688 219.46875 359.105469 C 254.96875 352.929688 261.433594 339.960938 261.433594 316.0625 L 261.433594 279.535156 L 178.410156 279.535156 L 178.410156 261.101562 L 304.730469 261.101562 C 329.046875 261.101562 350.328125 249.652344 357.070312 222.214844 C 364.691406 190.71875 365.03125 170.996094 357.070312 138.109375 C 351.019531 113.582031 337.707031 95.191406 313.382812 95.191406 L 279.875 95.191406 L 279.875 142.238281 C 279.875 169.574219 255.097656 196.582031 226.703125 196.582031 L 159.949219 196.582031 C 136.675781 196.582031 113.824219 213.742188 113.824219 236.925781 L 113.824219 316.0625 C 113.824219 338.542969 130.050781 355.355469 152.734375 359.125 C 152.171875 359.179688 168.933594 362.542969 183.160156 362.488281 Z M 229.148438 325.621094 C 221.574219 325.621094 215.308594 319.378906 215.308594 311.777344 C 215.308594 304.097656 221.574219 297.96875 229.148438 297.96875 C 236.867188 297.96875 242.984375 304.089844 242.984375 311.777344 C 242.984375 319.351562 236.859375 325.621094 229.148438 325.621094 Z M 229.148438 325.621094 " fill-opacity="1" fill-rule="nonzero"/></g></svg>