<svg xmlns="http://www.w3.org/2000/svg" xmlns:xlink="http://www.w3.org/1999/xlink" width="500" zoomAndPan="magnify" viewBox="0 0 375 374.999991" height="500" preserveAspectRatio="xMidYMid meet" version="1.0"><defs><clipPath id="id1"><path d="M 35 35.558594 L 252 35.558594 L 252 268 L 35 268 Z M 35 35.558594 " clip-rule="nonzero"/></clipPath><clipPath id="id2"><path d="M 123 107 L 340 107 L 340 339.308594 L 123 339.308594 Z M 123 107 " clip-rule="nonzero"/></clipPath></defs><rect x="-37.5" width="450" fill="#ffffff" y="-37.499999" height="449.999989" fill-opacity="1"/><rect x="-37.5" width="450" fill="#ffffff" y="-37.499999" height="449.999989" fill-opacity="1"/><rect x="-37.5" width="450" fill="#ffffff" y="-37.499999" height="449.999989" fill-opacity="1"/><g clip-path="url(#id1)"><path fill="#0277bd" d="M 191.4375 35.558594 C 179.003906 35.597656 170.382812 36.691406 159.96875 38.492188 C 129.203125 43.847656 123.597656 55.09375 123.597656 75.820312 L 123.597656 107.5 L 195.554688 107.5 L 195.554688 123.484375 L 86.085938 123.484375 C 65.011719 123.484375 46.566406 133.414062 40.722656 157.210938 C 34.117188 184.523438 33.820312 201.628906 40.722656 230.148438 C 45.957031 251.421875 57.496094 267.367188 78.578125 267.367188 L 107.617188 267.367188 L 107.617188 226.570312 C 107.617188 202.859375 129.089844 179.441406 153.699219 179.441406 L 211.550781 179.441406 C 231.722656 179.441406 251.527344 164.554688 251.527344 144.453125 L 251.527344 75.820312 C 251.527344 56.324219 237.460938 41.746094 217.804688 38.476562 C 218.289062 38.429688 203.765625 35.511719 191.4375 35.558594 Z M 151.589844 67.53125 C 158.152344 67.53125 163.582031 72.945312 163.582031 79.539062 C 163.582031 86.195312 158.152344 91.511719 151.589844 91.511719 C 144.898438 91.511719 139.597656 86.203125 139.597656 79.539062 C 139.597656 72.96875 144.898438 67.53125 151.589844 67.53125 Z M 151.589844 67.53125 " fill-opacity="1" fill-rule="nonzero"/></g><g clip-path="url(#id2)"><path fill="#ffc107" d="M 183.6875 339.308594 C 196.121094 339.269531 204.738281 338.171875 215.15625 336.375 C 245.921875 331.019531 251.527344 319.773438 251.527344 299.046875 L 251.527344 267.367188 L 179.570312 267.367188 L 179.570312 251.378906 L 289.046875 251.378906 C 310.121094 251.378906 328.566406 241.453125 334.410156 217.65625 C 341.015625 190.34375 341.308594 173.238281 334.410156 144.714844 C 329.164062 123.445312 317.628906 107.5 296.546875 107.5 L 267.507812 107.5 L 267.507812 148.296875 C 267.507812 172.007812 246.035156 195.425781 221.425781 195.425781 L 163.574219 195.425781 C 143.402344 195.425781 123.597656 210.308594 123.597656 230.414062 L 123.597656 299.046875 C 123.597656 318.542969 137.660156 333.121094 157.320312 336.390625 C 156.832031 336.4375 171.359375 339.355469 183.6875 339.308594 Z M 223.542969 307.335938 C 216.980469 307.335938 211.550781 301.921875 211.550781 295.328125 C 211.550781 288.667969 216.980469 283.355469 223.542969 283.355469 C 230.234375 283.355469 235.535156 288.660156 235.535156 295.328125 C 235.535156 301.898438 230.226562 307.335938 223.542969 307.335938 Z M 223.542969 307.335938 " fill-opacity="1" fill-rule="nonzero"/></g></svg>