<svg xmlns="http://www.w3.org/2000/svg" xmlns:xlink="http://www.w3.org/1999/xlink" width="500" zoomAndPan="magnify" viewBox="0 0 375 374.999991" height="500" preserveAspectRatio="xMidYMid meet" version="1.0"><defs><clipPath id="id1"><path d="M 10.148438 30 L 364.898438 30 L 364.898438 346 L 10.148438 346 Z M 10.148438 30 " clip-rule="nonzero"/></clipPath></defs><g clip-path="url(#id1)"><path fill="#00d8ff" d="M 301.589844 132.164062 C 297.925781 130.902344 294.121094 129.703125 290.195312 128.574219 C 290.84375 125.941406 291.4375 123.347656 291.964844 120.792969 C 300.578125 78.894531 294.953125 45.136719 275.6875 34.023438 C 257.210938 23.367188 227.007812 34.476562 196.5 61.042969 C 193.570312 63.597656 190.621094 66.300781 187.691406 69.132812 C 185.726562 67.257812 183.777344 65.449219 181.828125 63.714844 C 149.855469 35.3125 117.808594 23.339844 98.566406 34.484375 C 80.113281 45.175781 74.648438 76.90625 82.414062 116.617188 C 83.164062 120.453125 84.042969 124.371094 85.03125 128.355469 C 80.496094 129.640625 76.117188 131.015625 71.929688 132.476562 C 34.445312 145.550781 10.507812 166.042969 10.507812 187.300781 C 10.507812 209.25 36.207031 231.277344 75.246094 244.628906 C 78.328125 245.683594 81.523438 246.679688 84.820312 247.621094 C 83.75 251.921875 82.820312 256.144531 82.039062 260.265625 C 74.636719 299.289062 80.417969 330.269531 98.820312 340.882812 C 117.828125 351.855469 149.730469 340.578125 180.789062 313.417969 C 183.25 311.273438 185.714844 308.988281 188.175781 306.609375 C 191.382812 309.679688 194.578125 312.601562 197.746094 315.339844 C 227.835938 341.242188 257.558594 351.703125 275.9375 341.0625 C 294.921875 330.0625 301.105469 296.769531 293.085938 256.28125 C 292.476562 253.183594 291.757812 250.027344 290.96875 246.816406 C 293.207031 246.152344 295.40625 245.460938 297.550781 244.753906 C 338.140625 231.292969 364.539062 209.554688 364.539062 187.300781 C 364.539062 165.964844 339.828125 145.335938 301.589844 132.164062 Z M 292.792969 230.390625 C 290.859375 231.027344 288.867188 231.652344 286.847656 232.246094 C 282.367188 218.0625 276.324219 202.964844 268.910156 187.371094 C 275.976562 172.152344 281.785156 157.253906 286.140625 143.152344 C 289.765625 144.203125 293.277344 145.308594 296.667969 146.472656 C 329.425781 157.757812 349.410156 174.449219 349.410156 187.300781 C 349.410156 200.988281 327.835938 218.769531 292.792969 230.390625 Z M 278.246094 259.214844 C 281.800781 277.121094 282.296875 293.3125 279.945312 305.972656 C 277.84375 317.347656 273.597656 324.929688 268.355469 327.960938 C 257.195312 334.421875 233.339844 326.023438 207.617188 303.867188 C 204.660156 301.324219 201.6875 298.609375 198.714844 295.746094 C 208.683594 284.828125 218.65625 272.140625 228.390625 258.039062 C 245.496094 256.53125 261.664062 254.039062 276.335938 250.648438 C 277.054688 253.570312 277.691406 256.421875 278.246094 259.214844 Z M 131.210938 326.839844 C 120.3125 330.699219 111.628906 330.808594 106.382812 327.78125 C 95.214844 321.332031 90.570312 296.453125 96.902344 263.089844 C 97.628906 259.269531 98.492188 255.339844 99.488281 251.328125 C 113.992188 254.539062 130.042969 256.847656 147.199219 258.234375 C 156.996094 272.027344 167.257812 284.703125 177.585938 295.800781 C 175.332031 297.988281 173.078125 300.0625 170.839844 302.015625 C 157.105469 314.039062 143.34375 322.5625 131.210938 326.839844 Z M 80.144531 230.308594 C 62.882812 224.402344 48.625 216.734375 38.851562 208.347656 C 30.070312 200.835938 25.640625 193.363281 25.640625 187.300781 C 25.640625 174.40625 44.859375 157.949219 76.914062 146.765625 C 80.800781 145.410156 84.875 144.128906 89.097656 142.929688 C 93.53125 157.347656 99.339844 172.425781 106.355469 187.664062 C 99.25 203.132812 93.355469 218.449219 88.882812 233.050781 C 85.871094 232.175781 82.953125 231.265625 80.144531 230.308594 Z M 97.261719 113.710938 C 90.609375 79.6875 95.027344 54.023438 106.148438 47.582031 C 117.992188 40.722656 144.179688 50.503906 171.777344 75.03125 C 173.550781 76.597656 175.320312 78.238281 177.101562 79.933594 C 166.8125 90.988281 156.648438 103.566406 146.9375 117.28125 C 130.289062 118.824219 114.351562 121.304688 99.695312 124.625 C 98.773438 120.917969 97.960938 117.273438 97.261719 113.710938 Z M 249.964844 151.441406 C 246.46875 145.390625 242.871094 139.476562 239.207031 133.726562 C 250.503906 135.15625 261.320312 137.054688 271.484375 139.375 C 268.441406 149.15625 264.640625 159.386719 260.15625 169.882812 C 256.949219 163.777344 253.546875 157.625 249.964844 151.441406 Z M 187.691406 90.75 C 194.675781 98.3125 201.660156 106.753906 208.53125 115.914062 C 201.605469 115.589844 194.59375 115.417969 187.527344 115.417969 C 180.527344 115.417969 173.574219 115.585938 166.6875 115.90625 C 173.558594 106.832031 180.613281 98.398438 187.691406 90.75 Z M 125.019531 151.546875 C 121.523438 157.617188 118.1875 163.734375 115.027344 169.867188 C 110.621094 159.414062 106.855469 149.136719 103.777344 139.214844 C 113.878906 136.953125 124.648438 135.101562 135.875 133.699219 C 132.15625 139.503906 128.527344 145.457031 125.019531 151.546875 Z M 136.195312 241.972656 C 124.601562 240.6875 113.667969 238.929688 103.570312 236.730469 C 106.695312 226.628906 110.546875 216.140625 115.042969 205.457031 C 118.210938 211.585938 121.558594 217.703125 125.082031 223.792969 C 128.667969 229.992188 132.382812 236.050781 136.195312 241.972656 Z M 188.105469 284.910156 C 180.945312 277.175781 173.792969 268.609375 166.808594 259.410156 C 173.585938 259.671875 180.5 259.808594 187.527344 259.808594 C 194.746094 259.808594 201.882812 259.644531 208.894531 259.339844 C 202.003906 268.707031 195.035156 277.285156 188.105469 284.910156 Z M 260.296875 204.917969 C 265.027344 215.710938 269.023438 226.144531 272.191406 236.078125 C 261.929688 238.417969 250.835938 240.300781 239.164062 241.710938 C 242.84375 235.886719 246.46875 229.867188 250.035156 223.679688 C 253.644531 217.425781 257.058594 211.15625 260.296875 204.917969 Z M 236.925781 216.125 C 231.394531 225.730469 225.710938 234.890625 219.941406 243.539062 C 209.445312 244.285156 198.589844 244.671875 187.527344 244.671875 C 176.503906 244.671875 165.785156 244.339844 155.46875 243.664062 C 149.46875 234.902344 143.667969 225.714844 138.167969 216.207031 C 132.683594 206.730469 127.636719 197.167969 123.0625 187.664062 C 127.636719 178.140625 132.671875 168.566406 138.125 159.105469 L 138.121094 159.105469 C 143.589844 149.621094 149.34375 140.472656 155.289062 131.761719 C 165.8125 130.964844 176.613281 130.550781 187.527344 130.550781 C 198.492188 130.550781 209.292969 130.96875 219.816406 131.773438 C 225.679688 140.417969 231.394531 149.539062 236.882812 159.027344 C 242.429688 168.621094 247.53125 178.128906 252.136719 187.453125 C 247.546875 196.933594 242.457031 206.535156 236.925781 216.125 Z M 268.125 47.128906 C 279.988281 53.96875 284.59375 81.558594 277.140625 117.734375 C 276.671875 120.042969 276.132812 122.394531 275.550781 124.777344 C 260.863281 121.386719 244.917969 118.863281 228.226562 117.296875 C 218.492188 103.433594 208.410156 90.832031 198.285156 79.925781 C 201.011719 77.304688 203.734375 74.808594 206.429688 72.453125 C 232.570312 49.695312 257.003906 40.707031 268.125 47.128906 Z M 187.527344 155.664062 C 204.980469 155.664062 219.140625 169.820312 219.140625 187.296875 C 219.140625 204.761719 204.980469 218.929688 187.527344 218.929688 C 170.074219 218.929688 155.914062 204.761719 155.914062 187.296875 C 155.914062 169.820312 170.074219 155.664062 187.527344 155.664062 Z M 187.527344 155.664062 " fill-opacity="1" fill-rule="nonzero"/></g></svg>