<svg xmlns="http://www.w3.org/2000/svg" xmlns:xlink="http://www.w3.org/1999/xlink" width="500" zoomAndPan="magnify" viewBox="0 0 375 374.999991" height="500" preserveAspectRatio="xMidYMid meet" version="1.0"><defs><clipPath id="id1"><path d="M 30.332031 47 L 344.582031 47 L 344.582031 328 L 30.332031 328 Z M 30.332031 47 " clip-rule="nonzero"/></clipPath></defs><g clip-path="url(#id1)"><path fill="#00d8ff" d="M 288.496094 138.425781 C 285.25 137.304688 281.882812 136.246094 278.402344 135.242188 C 278.980469 132.910156 279.507812 130.613281 279.972656 128.351562 C 287.605469 91.234375 282.617188 61.332031 265.554688 51.484375 C 249.1875 42.046875 222.433594 51.890625 195.410156 75.421875 C 192.8125 77.683594 190.203125 80.078125 187.605469 82.589844 C 185.867188 80.929688 184.140625 79.324219 182.410156 77.789062 C 154.089844 52.628906 125.703125 42.023438 108.65625 51.894531 C 92.3125 61.363281 87.472656 89.476562 94.351562 124.652344 C 95.015625 128.050781 95.792969 131.519531 96.667969 135.046875 C 92.652344 136.191406 88.773438 137.40625 85.0625 138.699219 C 51.859375 150.28125 30.65625 168.4375 30.65625 187.269531 C 30.65625 206.707031 53.421875 226.222656 88.003906 238.050781 C 90.730469 238.984375 93.5625 239.867188 96.480469 240.699219 C 95.535156 244.511719 94.710938 248.25 94.019531 251.902344 C 87.460938 286.46875 92.582031 313.914062 108.882812 323.316406 C 125.71875 333.039062 153.980469 323.046875 181.492188 298.984375 C 183.671875 297.085938 185.855469 295.0625 188.035156 292.953125 C 190.875 295.675781 193.707031 298.261719 196.511719 300.6875 C 223.167969 323.636719 249.492188 332.902344 265.773438 323.476562 C 282.59375 313.730469 288.070312 284.238281 280.964844 248.371094 C 280.425781 245.628906 279.789062 242.832031 279.089844 239.988281 C 281.074219 239.398438 283.023438 238.789062 284.921875 238.164062 C 320.875 226.234375 344.261719 206.976562 344.261719 187.269531 C 344.261719 168.367188 322.371094 150.09375 288.496094 138.425781 Z M 280.707031 225.4375 C 278.992188 226.003906 277.226562 226.554688 275.4375 227.082031 C 271.46875 214.515625 266.117188 201.144531 259.550781 187.328125 C 265.8125 173.84375 270.957031 160.648438 274.816406 148.15625 C 278.023438 149.085938 281.136719 150.066406 284.136719 151.101562 C 313.15625 161.097656 330.859375 175.878906 330.859375 187.269531 C 330.859375 199.390625 311.75 215.140625 280.707031 225.4375 Z M 267.820312 250.972656 C 270.96875 266.832031 271.410156 281.175781 269.328125 292.390625 C 267.464844 302.464844 263.703125 309.183594 259.0625 311.867188 C 249.175781 317.59375 228.042969 310.152344 205.257812 290.527344 C 202.636719 288.273438 200.003906 285.871094 197.367188 283.332031 C 206.203125 273.660156 215.035156 262.421875 223.65625 249.929688 C 238.8125 248.59375 253.132812 246.386719 266.128906 243.382812 C 266.765625 245.96875 267.328125 248.496094 267.820312 250.972656 Z M 137.574219 310.875 C 127.921875 314.296875 120.230469 314.394531 115.582031 311.707031 C 105.6875 305.996094 101.578125 283.957031 107.1875 254.402344 C 107.828125 251.019531 108.59375 247.539062 109.476562 243.984375 C 122.320312 246.828125 136.539062 248.875 151.734375 250.101562 C 160.414062 262.324219 169.503906 273.550781 178.65625 283.382812 C 176.660156 285.316406 174.664062 287.15625 172.675781 288.886719 C 160.511719 299.535156 148.320312 307.085938 137.574219 310.875 Z M 92.339844 225.363281 C 77.046875 220.132812 64.417969 213.339844 55.761719 205.910156 C 47.984375 199.257812 44.058594 192.636719 44.058594 187.269531 C 44.058594 175.84375 61.082031 161.265625 89.476562 151.359375 C 92.921875 150.15625 96.53125 149.023438 100.273438 147.960938 C 104.195312 160.730469 109.34375 174.089844 115.554688 187.585938 C 109.261719 201.289062 104.042969 214.859375 100.078125 227.792969 C 97.410156 227.019531 94.828125 226.210938 92.339844 225.363281 Z M 107.503906 122.078125 C 101.609375 91.9375 105.523438 69.203125 115.375 63.5 C 125.863281 57.421875 149.0625 66.085938 173.511719 87.8125 C 175.078125 89.199219 176.648438 90.652344 178.226562 92.15625 C 169.113281 101.949219 160.109375 113.09375 151.507812 125.238281 C 136.757812 126.605469 122.640625 128.804688 109.660156 131.746094 C 108.84375 128.460938 108.121094 125.234375 107.503906 122.078125 Z M 242.769531 155.5 C 239.671875 150.140625 236.484375 144.902344 233.238281 139.808594 C 243.246094 141.074219 252.828125 142.753906 261.832031 144.808594 C 259.136719 153.476562 255.765625 162.539062 251.796875 171.835938 C 248.957031 166.425781 245.941406 160.980469 242.769531 155.5 Z M 187.605469 101.738281 C 193.792969 108.4375 199.980469 115.914062 206.066406 124.03125 C 199.929688 123.742188 193.71875 123.589844 187.460938 123.589844 C 181.261719 123.589844 175.097656 123.738281 169 124.023438 C 175.085938 115.984375 181.335938 108.515625 187.605469 101.738281 Z M 132.089844 155.59375 C 128.992188 160.972656 126.039062 166.390625 123.238281 171.824219 C 119.339844 162.5625 116 153.460938 113.273438 144.667969 C 122.222656 142.664062 131.761719 141.027344 141.707031 139.785156 C 138.410156 144.925781 135.199219 150.199219 132.089844 155.59375 Z M 141.992188 235.699219 C 131.71875 234.558594 122.035156 233 113.089844 231.050781 C 115.859375 222.105469 119.269531 212.8125 123.253906 203.351562 C 126.0625 208.78125 129.027344 214.199219 132.144531 219.589844 C 135.320312 225.082031 138.613281 230.453125 141.992188 235.699219 Z M 187.972656 273.734375 C 181.628906 266.882812 175.296875 259.292969 169.109375 251.144531 C 175.113281 251.375 181.238281 251.5 187.460938 251.5 C 193.855469 251.5 200.175781 251.351562 206.386719 251.082031 C 200.285156 259.378906 194.113281 266.980469 187.972656 273.734375 Z M 251.921875 202.871094 C 256.109375 212.433594 259.648438 221.675781 262.457031 230.476562 C 253.367188 232.546875 243.542969 234.214844 233.203125 235.464844 C 236.460938 230.304688 239.671875 224.972656 242.832031 219.492188 C 246.027344 213.953125 249.054688 208.398438 251.921875 202.871094 Z M 231.21875 212.800781 C 226.316406 221.308594 221.28125 229.421875 216.175781 237.082031 C 206.875 237.746094 197.261719 238.089844 187.460938 238.089844 C 177.695312 238.089844 168.203125 237.792969 159.0625 237.195312 C 153.746094 229.433594 148.609375 221.296875 143.738281 212.875 C 138.878906 204.476562 134.410156 196.007812 130.359375 187.585938 C 134.40625 179.152344 138.867188 170.671875 143.699219 162.289062 L 143.699219 162.292969 C 148.539062 153.886719 153.636719 145.785156 158.90625 138.070312 C 168.226562 137.363281 177.792969 136.996094 187.460938 136.996094 C 197.175781 136.996094 206.742188 137.367188 216.0625 138.078125 C 221.257812 145.738281 226.316406 153.8125 231.179688 162.21875 C 236.09375 170.71875 240.613281 179.140625 244.691406 187.402344 C 240.625 195.800781 236.117188 204.304688 231.21875 212.800781 Z M 258.855469 63.097656 C 269.363281 69.15625 273.445312 93.59375 266.839844 125.644531 C 266.425781 127.6875 265.945312 129.769531 265.433594 131.882812 C 252.421875 128.875 238.296875 126.640625 223.511719 125.253906 C 214.886719 112.972656 205.957031 101.8125 196.992188 92.148438 C 199.402344 89.828125 201.816406 87.617188 204.207031 85.527344 C 227.359375 65.367188 249.003906 57.40625 258.855469 63.097656 Z M 187.460938 159.242188 C 202.917969 159.242188 215.464844 171.78125 215.464844 187.265625 C 215.464844 202.734375 202.917969 215.285156 187.460938 215.285156 C 172 215.285156 159.457031 202.734375 159.457031 187.265625 C 159.457031 171.78125 172 159.242188 187.460938 159.242188 Z M 187.460938 159.242188 " fill-opacity="1" fill-rule="nonzero"/></g></svg>